<svg xmlns="http://www.w3.org/2000/svg" width="56.128" height="47.413" viewBox="0 0 56.128 47.413">
  <g id="upload-photo" transform="translate(15193.706 4070.295)">
    <path id="Path_9102" data-name="Path 9102" d="M144.8,91.914H113.341l7.767-11.108,10.356,5.93.331.15a2.5,2.5,0,0,0,2.89-.813l14.329-18.634V67.8l.03.331a2.51,2.51,0,0,0,5-.331V52.056l-.03-.331a2.505,2.505,0,0,0-2.5-2.167H107.5l-.331.03a2.505,2.505,0,0,0-2.167,2.5V94.442l.03.331a2.505,2.505,0,0,0,2.5,2.167H144.8l.331-.03a2.505,2.505,0,0,0,2.167-2.5l-.03-.331a2.5,2.5,0,0,0-2.468-2.167Zm4.214-37.329v4.666L132.036,81.317,121.59,75.356l-.331-.15a2.475,2.475,0,0,0-2.95.9L110.03,87.879V54.585Z" transform="translate(-15298.709 -4119.853)" fill="#707070"/>
    <path id="Path_9103" data-name="Path 9103" d="M208.846,144.323a3.763,3.763,0,1,1-3.763-3.763,3.763,3.763,0,0,1,3.763,3.763" transform="translate(-15384.671 -4201.071)" fill="#707070"/>
    <path id="Path_9104" data-name="Path 9104" d="M466.979,280.079l-7.1-7.917-.03-.03a.813.813,0,0,0-.241-.211l-.09-.09c-.03-.03-.06-.06-.09-.06-.03-.03-.06-.06-.09-.06-.03-.03-.06-.03-.09-.06s-.06-.03-.121-.06c-.03-.03-.06-.03-.09-.06s-.06-.03-.121-.06c-.03,0-.06-.03-.121-.03-.03,0-.06-.03-.09-.03s-.09-.03-.121-.03-.06-.03-.09-.03a.181.181,0,0,1-.121-.03h-.693a.181.181,0,0,0-.121.03c-.03,0-.09.03-.12.03s-.09.03-.121.03-.06.03-.121.03a.231.231,0,0,0-.121.06c-.03,0-.06.03-.09.03-.03.03-.09.03-.121.06s-.06.03-.09.06a.227.227,0,0,1-.121.06c-.03.03-.06.03-.09.06a.414.414,0,0,1-.121.09c-.03.03-.06.06-.09.06l-.09.09-.09.09-.06.06-7.043,7.918-.241.3a2.532,2.532,0,0,0,.422,3.251l.3.241a2.532,2.532,0,0,0,3.251-.422l2.709-3.041v11.981l.03.331a2.51,2.51,0,0,0,5-.331v-12.01l2.709,3.041.271.271a2.508,2.508,0,0,0,3.462-3.613Z" transform="translate(-15605.204 -4317.772)" fill="#707070"/>
  </g>
</svg>
